<svg width="100" height="20" viewBox="0 0 100 20" fill="none" xmlns="http://www.w3.org/2000/svg">
<path d="M6.80029 2.95009C6.80029 2.73377 6.91674 2.53419 7.10506 2.42775L10.5051 0.506005C10.905 0.279931 11.4003 0.568898 11.4003 1.02834V7.04995C11.4003 7.26627 11.2839 7.46584 11.0955 7.57229L7.69553 9.49403C7.29556 9.72011 6.80029 9.43114 6.80029 8.97169V2.95009Z" fill="#0A0A0A"/>
<path d="M0 6.15029C0 5.93396 0.116445 5.73439 0.304767 5.62795L3.70478 3.7062C4.10476 3.48013 4.60002 3.76909 4.60002 4.22854V12.8502C4.60002 13.0665 4.48357 13.2661 4.29525 13.3725L0.895239 15.2942C0.495263 15.5203 0 15.2313 0 14.7719V6.15029Z" fill="#0A0A0A"/>
<path d="M13.6001 7.35048C13.6001 7.13416 13.7165 6.93458 13.9049 6.82814L17.3049 4.9064C17.7049 4.68032 18.2001 4.96929 18.2001 5.42873V13.8503C18.2001 14.0667 18.0837 14.2662 17.8953 14.3727L14.4953 16.2944C14.0954 16.5205 13.6001 16.2315 13.6001 15.7721V7.35048Z" fill="#0A0A0A"/>
<path d="M6.80029 12.9501C6.80029 12.7338 6.91674 12.5342 7.10506 12.4278L10.5051 10.506C10.905 10.2799 11.4003 10.5689 11.4003 11.0283V17.0499C11.4003 17.2663 11.2839 17.4658 11.0955 17.5723L7.69553 19.494C7.29556 19.7201 6.80029 19.4311 6.80029 18.9717V12.9501Z" fill="#0A0A0A"/>
<path d="M98.8831 17.4322C96.771 17.4322 95.7555 16.5386 95.7555 14.4061V8.28286H94.2222V6.53627H95.7555V3.75391H97.9997V6.53627H100V8.28286H97.9997V14.2741C97.9997 15.3606 98.4871 15.6856 99.4112 15.6856C99.6447 15.6856 99.8377 15.6653 100 15.6449V17.3408C99.7463 17.3814 99.3299 17.4322 98.8831 17.4322Z" fill="#0A0A0A"/>
<path d="M88.0626 17.432C85.7169 17.432 84.3765 15.919 84.3765 13.4616V6.53613H86.5699V13.0351C86.5699 14.6497 87.3213 15.5433 88.8445 15.5433C90.388 15.5433 91.3831 14.4364 91.3831 12.7711V6.53613H93.5867V17.2188H91.3831V15.6143H91.3324C90.7739 16.6907 89.6873 17.432 88.0626 17.432Z" fill="#0A0A0A"/>
<path d="M78.2883 17.432C75.2216 17.432 73.2212 15.3097 73.2212 11.8774V11.8571C73.2212 8.44516 75.242 6.33301 78.2782 6.33301C81.3246 6.33301 83.3555 8.43501 83.3555 11.8571V11.8774C83.3555 15.3198 81.3449 17.432 78.2883 17.432ZM78.2985 15.594C80.0146 15.594 81.1113 14.2333 81.1113 11.8774V11.8571C81.1113 9.52155 79.9943 8.17099 78.2782 8.17099C76.5925 8.17099 75.4654 9.52155 75.4654 11.8571V11.8774C75.4654 14.2434 76.5824 15.594 78.2985 15.594Z" fill="#0A0A0A"/>
<path d="M66.4729 17.4327C63.7515 17.4327 62.0049 15.28 62.0049 11.8782V11.868C62.0049 8.46623 63.7718 6.33376 66.4526 6.33376C67.9656 6.33376 69.1842 7.09536 69.8239 8.35453H69.8645V2.56641H72.0681V17.2195H69.8645V15.412H69.8239C69.1842 16.661 68.0063 17.4327 66.4729 17.4327ZM67.0517 15.544C68.7069 15.544 69.8747 14.102 69.8747 11.8782V11.868C69.8747 9.65432 68.6968 8.21237 67.0517 8.21237C65.3254 8.21237 64.2491 9.6137 64.2491 11.868V11.8782C64.2491 14.1528 65.3153 15.544 67.0517 15.544Z" fill="#0A0A0A"/>
<path d="M51.7739 17.2187V6.5361H53.9673V8.15068H54.0181C54.5766 7.06414 55.6733 6.33301 57.2879 6.33301C59.6336 6.33301 60.9841 7.84604 60.9841 10.3035V17.2187H58.7806V10.7198C58.7806 9.11537 58.0292 8.21161 56.506 8.21161C54.9625 8.21161 53.9673 9.32862 53.9673 10.994V17.2187H51.7739Z" fill="#0A0A0A"/>
<path d="M44.7508 17.4117C42.6183 17.4117 41.1865 16.1017 41.1865 14.1825V14.1622C41.1865 12.3039 42.6285 11.1666 45.157 11.0143L48.0612 10.8417V10.0394C48.0612 8.8615 47.2996 8.15068 45.9389 8.15068C44.6696 8.15068 43.8876 8.7498 43.7049 9.60279L43.6846 9.69418H41.613L41.6232 9.58248C41.7755 7.7445 43.3698 6.33301 45.9998 6.33301C48.6095 6.33301 50.2647 7.71403 50.2647 9.85665V17.2187H48.0612V15.5331H48.0206C47.4011 16.6805 46.1623 17.4117 44.7508 17.4117ZM43.4002 14.1317C43.4002 15.066 44.172 15.6549 45.3499 15.6549C46.8934 15.6549 48.0612 14.609 48.0612 13.2178V12.3852L45.4515 12.5476C44.1314 12.6289 43.4002 13.2077 43.4002 14.1114V14.1317Z" fill="#0A0A0A"/>
<path d="M28 17.2195V2.56641H30.2746V8.76071H37.7992V2.56641H40.0738V17.2195H37.7992V10.7307H30.2746V17.2195H28Z" fill="#0A0A0A"/>
</svg>
