<svg width="83" height="17" viewBox="0 0 83 17" fill="none" xmlns="http://www.w3.org/2000/svg">
<path d="M0 6.5625H1.40625C3.13214 6.5625 4.53125 7.96161 4.53125 9.6875V15H4C1.79086 15 1.12747e-07 13.2091 0 11V6.5625ZM15 11C15 13.2091 13.2091 15 11 15H5.625V9.6875C5.625 7.96161 7.02411 6.5625 8.75 6.5625H15V11ZM4.53125 2.34375C4.53124 4.06964 3.13214 5.46875 1.40625 5.46875H0V4C0 1.79086 1.79086 1.12745e-07 4 0H4.53125V2.34375ZM11 0C13.2091 0 15 1.79086 15 4V5.46875H8.75C7.02411 5.46875 5.62501 4.06964 5.625 2.34375V0H11Z" fill="black"/>
<path d="M81.9911 11.036C81.7565 11.772 81.3298 12.4013 80.7111 12.924C80.0925 13.436 79.2178 13.692 78.0871 13.692C77.3085 13.692 76.6151 13.5107 76.0071 13.148C75.4098 12.7747 74.9458 12.2573 74.6151 11.596C74.2845 10.924 74.1191 10.156 74.1191 9.29199C74.1191 8.41732 74.2791 7.64399 74.5991 6.97199C74.9298 6.29999 75.3885 5.78265 75.9751 5.41999C76.5725 5.04665 77.2711 4.85999 78.0711 4.85999C78.8498 4.85999 79.5378 5.03599 80.1351 5.38799C80.7431 5.72932 81.2125 6.22532 81.5431 6.87599C81.8845 7.51599 82.0551 8.27865 82.0551 9.16399C82.0551 9.38799 82.0498 9.55865 82.0391 9.67599H75.7671C75.7885 10.4653 76.0071 11.1107 76.4231 11.612C76.8498 12.1133 77.4045 12.364 78.0871 12.364C78.7378 12.364 79.2391 12.2147 79.5911 11.916C79.9431 11.6067 80.1938 11.2493 80.3431 10.844L81.9911 11.036ZM78.0711 6.18799C77.4098 6.18799 76.8818 6.40665 76.4871 6.84399C76.1031 7.27065 75.8738 7.79865 75.7991 8.42799H80.3911C80.3165 7.78799 80.0818 7.25465 79.6871 6.82798C79.2925 6.40132 78.7538 6.18799 78.0711 6.18799Z" fill="black"/>
<path d="M73.5369 12.092V13.5C73.3023 13.5213 72.9023 13.532 72.3369 13.532C71.5476 13.532 70.9823 13.404 70.6409 13.148C70.3103 12.892 70.1449 12.4013 70.1449 11.676V6.28397H68.7529V5.05197H70.1449V2.66797H71.7769V5.05197H73.6329V6.28397H71.7769V11.244C71.7769 11.6173 71.8463 11.8573 71.9849 11.964C72.1236 12.0706 72.3743 12.124 72.7369 12.124L73.5369 12.092Z" fill="black"/>
<path d="M67.9142 13.5H66.2822V5.05202H67.9142V13.5ZM67.9142 3.69202H66.2822V1.91602H67.9142V3.69202Z" fill="black"/>
<path d="M63.5267 7.57999C63.4093 7.09999 63.1693 6.73732 62.8067 6.49199C62.444 6.23599 62.0227 6.10799 61.5427 6.10799C61.0413 6.10799 60.6413 6.21465 60.3427 6.42799C60.044 6.64132 59.8947 6.94532 59.8947 7.33999C59.8947 7.67065 60.028 7.91065 60.2947 8.05999C60.572 8.20932 60.988 8.33199 61.5427 8.42799L62.3747 8.55599C63.2707 8.71599 63.964 8.97199 64.4547 9.32399C64.956 9.66532 65.2067 10.2413 65.2067 11.052C65.2067 11.8947 64.8707 12.5453 64.1987 13.004C63.5373 13.4627 62.6787 13.692 61.6227 13.692C60.5773 13.692 59.724 13.452 59.0627 12.972C58.4013 12.4813 57.996 11.8413 57.8467 11.052L59.3347 10.732C59.4627 11.3187 59.724 11.756 60.1187 12.044C60.524 12.3213 61.036 12.46 61.6547 12.46C62.22 12.46 62.6733 12.3427 63.0147 12.108C63.356 11.8627 63.5267 11.5267 63.5267 11.1C63.5267 10.748 63.3773 10.4867 63.0787 10.316C62.7907 10.1453 62.3533 10.012 61.7667 9.91599L60.9027 9.77199C60.092 9.63332 59.4413 9.39332 58.9507 9.05199C58.4707 8.71065 58.2307 8.14532 58.2307 7.35599C58.2307 6.87599 58.3693 6.44932 58.6467 6.07599C58.9347 5.69199 59.3293 5.39332 59.8307 5.17999C60.3427 4.96665 60.9187 4.85999 61.5587 4.85999C62.156 4.85999 62.7053 4.97199 63.2067 5.19598C63.708 5.40932 64.1134 5.70265 64.4227 6.07599C64.7427 6.43865 64.94 6.83332 65.0147 7.25999L63.5267 7.57999Z" fill="black"/>
<path d="M57.3651 12.092V13.5C57.1304 13.5213 56.7304 13.532 56.1651 13.532C55.3757 13.532 54.8104 13.404 54.4691 13.148C54.1384 12.892 53.9731 12.4013 53.9731 11.676V6.28397H52.5811V5.05197H53.9731V2.66797H55.6051V5.05197H57.4611V6.28397H55.6051V11.244C55.6051 11.6173 55.6744 11.8573 55.8131 11.964C55.9517 12.0706 56.2024 12.124 56.5651 12.124L57.3651 12.092Z" fill="black"/>
<path d="M46.3039 1.91602V6.17202H46.3679C46.9759 5.29735 47.8399 4.86002 48.9599 4.86002C49.4825 4.86002 49.9679 4.97202 50.4159 5.19602C50.8639 5.40935 51.2212 5.74535 51.4879 6.20402C51.7652 6.66268 51.9039 7.22802 51.9039 7.90002V13.5H50.2719V8.39602C50.2719 7.61735 50.1172 7.06268 49.8079 6.73202C49.4985 6.40135 49.0292 6.23602 48.3999 6.23602C48.0479 6.23602 47.7119 6.34802 47.3919 6.57202C47.0719 6.79602 46.8105 7.12135 46.6079 7.54802C46.4052 7.96402 46.3039 8.44935 46.3039 9.00402V13.5H44.6719V1.91602H46.3039Z" fill="black"/>
<path d="M41.8305 5.05199H43.3985V12.908C43.3985 14.188 43.0358 15.1267 42.3105 15.724C41.5852 16.332 40.6305 16.636 39.4465 16.636C38.4972 16.636 37.6812 16.4173 36.9985 15.98C36.3265 15.5427 35.8625 14.8707 35.6065 13.964L37.1745 13.628C37.3345 14.2253 37.6012 14.652 37.9745 14.908C38.3585 15.164 38.8492 15.292 39.4465 15.292C40.9932 15.292 41.7665 14.4707 41.7665 12.828V11.98H41.7025C41.4678 12.3107 41.1372 12.572 40.7105 12.764C40.2838 12.956 39.7932 13.052 39.2385 13.052C38.5132 13.052 37.8625 12.8813 37.2865 12.54C36.7212 12.1987 36.2785 11.7187 35.9585 11.1C35.6385 10.4813 35.4785 9.76665 35.4785 8.95599C35.4785 8.15598 35.6385 7.44665 35.9585 6.82798C36.2785 6.19865 36.7212 5.71332 37.2865 5.37199C37.8625 5.03065 38.5132 4.85999 39.2385 4.85999C39.8145 4.85999 40.3265 4.96665 40.7745 5.17999C41.2225 5.38265 41.5585 5.66532 41.7825 6.02799H41.8305V5.05199ZM39.5105 11.756C40.2252 11.756 40.7958 11.5 41.2225 10.988C41.6492 10.476 41.8625 9.79865 41.8625 8.95599C41.8625 8.12398 41.6492 7.45732 41.2225 6.95599C40.7958 6.44398 40.2252 6.18799 39.5105 6.18799C38.7958 6.18799 38.2198 6.44398 37.7825 6.95599C37.3558 7.45732 37.1425 8.12398 37.1425 8.95599C37.1425 9.78799 37.3558 10.4653 37.7825 10.988C38.2198 11.5 38.7958 11.756 39.5105 11.756Z" fill="black"/>
<path d="M34.3517 13.5H32.7197V5.05202H34.3517V13.5ZM34.3517 3.69202H32.7197V1.91602H34.3517V3.69202Z" fill="black"/>
<path d="M31.7358 11.9801V13.5001H23.7358V2.07605H25.4958V11.9801H31.7358Z" fill="black"/>
</svg>
