<svg preserveAspectRatio="none" width="100%" height="100%" overflow="visible" style="display: block;" viewBox="0 0 32 32" fill="none" xmlns="http://www.w3.org/2000/svg">
<g id="AIAgentLogo/Gemini">
<path id="Vector" d="M27.4889 14.4415C25.2739 13.4986 23.2599 12.1403 21.5556 10.4402C19.1821 8.06193 17.4888 5.09149 16.6516 1.83749C16.6149 1.69297 16.531 1.56481 16.4133 1.47327C16.2956 1.38173 16.1507 1.33203 16.0016 1.33203C15.8525 1.33203 15.7076 1.38173 15.5899 1.47327C15.4722 1.56481 15.3883 1.69297 15.3516 1.83749C14.5126 5.09107 12.819 8.06117 10.4463 10.4402C8.74179 12.1401 6.72781 13.4983 4.51294 14.4415C3.64628 14.8148 2.75561 15.1148 1.84361 15.3455C1.6982 15.3812 1.56897 15.4647 1.47658 15.5825C1.38419 15.7003 1.33398 15.8458 1.33398 15.9955C1.33398 16.1452 1.38419 16.2906 1.47658 16.4085C1.56897 16.5263 1.6982 16.6098 1.84361 16.6455C2.75561 16.8748 3.64361 17.1748 4.51294 17.5482C6.72793 18.4911 8.74195 19.8493 10.4463 21.5495C12.8204 23.928 14.5142 26.8989 15.3516 30.1535C15.3873 30.2989 15.4708 30.4281 15.5886 30.5205C15.7065 30.6129 15.8519 30.6631 16.0016 30.6631C16.1513 30.6631 16.2968 30.6129 16.4146 30.5205C16.5324 30.4281 16.6159 30.2989 16.6516 30.1535C16.8809 29.2402 17.1809 28.3522 17.5543 27.4828C18.4972 25.2678 19.8554 23.2538 21.5556 21.5495C23.9343 19.1759 26.9052 17.4826 30.1596 16.6455C30.3041 16.6088 30.4323 16.5249 30.5238 16.4072C30.6154 16.2895 30.6651 16.1446 30.6651 15.9955C30.6651 15.8464 30.6154 15.7015 30.5238 15.5838C30.4323 15.4661 30.3041 15.3822 30.1596 15.3455C29.2467 15.1158 28.3536 14.8135 27.4889 14.4415Z" fill="var(--fill-0, #3186FF)"/>
<path id="Vector_2" d="M27.4889 14.4415C25.2739 13.4986 23.2599 12.1403 21.5556 10.4402C19.1821 8.06193 17.4888 5.09149 16.6516 1.83749C16.6149 1.69297 16.531 1.56481 16.4133 1.47327C16.2956 1.38173 16.1507 1.33203 16.0016 1.33203C15.8525 1.33203 15.7076 1.38173 15.5899 1.47327C15.4722 1.56481 15.3883 1.69297 15.3516 1.83749C14.5126 5.09107 12.819 8.06117 10.4463 10.4402C8.74179 12.1401 6.72781 13.4983 4.51294 14.4415C3.64628 14.8148 2.75561 15.1148 1.84361 15.3455C1.6982 15.3812 1.56897 15.4647 1.47658 15.5825C1.38419 15.7003 1.33398 15.8458 1.33398 15.9955C1.33398 16.1452 1.38419 16.2906 1.47658 16.4085C1.56897 16.5263 1.6982 16.6098 1.84361 16.6455C2.75561 16.8748 3.64361 17.1748 4.51294 17.5482C6.72793 18.4911 8.74195 19.8493 10.4463 21.5495C12.8204 23.928 14.5142 26.8989 15.3516 30.1535C15.3873 30.2989 15.4708 30.4281 15.5886 30.5205C15.7065 30.6129 15.8519 30.6631 16.0016 30.6631C16.1513 30.6631 16.2968 30.6129 16.4146 30.5205C16.5324 30.4281 16.6159 30.2989 16.6516 30.1535C16.8809 29.2402 17.1809 28.3522 17.5543 27.4828C18.4972 25.2678 19.8554 23.2538 21.5556 21.5495C23.9343 19.1759 26.9052 17.4826 30.1596 16.6455C30.3041 16.6088 30.4323 16.5249 30.5238 16.4072C30.6154 16.2895 30.6651 16.1446 30.6651 15.9955C30.6651 15.8464 30.6154 15.7015 30.5238 15.5838C30.4323 15.4661 30.3041 15.3822 30.1596 15.3455C29.2467 15.1158 28.3536 14.8135 27.4889 14.4415Z" fill="url(#paint0_linear_0_30)"/>
<path id="Vector_3" d="M27.4889 14.4415C25.2739 13.4986 23.2599 12.1403 21.5556 10.4402C19.1821 8.06193 17.4888 5.09149 16.6516 1.83749C16.6149 1.69297 16.531 1.56481 16.4133 1.47327C16.2956 1.38173 16.1507 1.33203 16.0016 1.33203C15.8525 1.33203 15.7076 1.38173 15.5899 1.47327C15.4722 1.56481 15.3883 1.69297 15.3516 1.83749C14.5126 5.09107 12.819 8.06117 10.4463 10.4402C8.74179 12.1401 6.72781 13.4983 4.51294 14.4415C3.64628 14.8148 2.75561 15.1148 1.84361 15.3455C1.6982 15.3812 1.56897 15.4647 1.47658 15.5825C1.38419 15.7003 1.33398 15.8458 1.33398 15.9955C1.33398 16.1452 1.38419 16.2906 1.47658 16.4085C1.56897 16.5263 1.6982 16.6098 1.84361 16.6455C2.75561 16.8748 3.64361 17.1748 4.51294 17.5482C6.72793 18.4911 8.74195 19.8493 10.4463 21.5495C12.8204 23.928 14.5142 26.8989 15.3516 30.1535C15.3873 30.2989 15.4708 30.4281 15.5886 30.5205C15.7065 30.6129 15.8519 30.6631 16.0016 30.6631C16.1513 30.6631 16.2968 30.6129 16.4146 30.5205C16.5324 30.4281 16.6159 30.2989 16.6516 30.1535C16.8809 29.2402 17.1809 28.3522 17.5543 27.4828C18.4972 25.2678 19.8554 23.2538 21.5556 21.5495C23.9343 19.1759 26.9052 17.4826 30.1596 16.6455C30.3041 16.6088 30.4323 16.5249 30.5238 16.4072C30.6154 16.2895 30.6651 16.1446 30.6651 15.9955C30.6651 15.8464 30.6154 15.7015 30.5238 15.5838C30.4323 15.4661 30.3041 15.3822 30.1596 15.3455C29.2467 15.1158 28.3536 14.8135 27.4889 14.4415Z" fill="url(#paint1_linear_0_30)"/>
<path id="Vector_4" d="M27.4889 14.4415C25.2739 13.4986 23.2599 12.1403 21.5556 10.4402C19.1821 8.06193 17.4888 5.09149 16.6516 1.83749C16.6149 1.69297 16.531 1.56481 16.4133 1.47327C16.2956 1.38173 16.1507 1.33203 16.0016 1.33203C15.8525 1.33203 15.7076 1.38173 15.5899 1.47327C15.4722 1.56481 15.3883 1.69297 15.3516 1.83749C14.5126 5.09107 12.819 8.06117 10.4463 10.4402C8.74179 12.1401 6.72781 13.4983 4.51294 14.4415C3.64628 14.8148 2.75561 15.1148 1.84361 15.3455C1.6982 15.3812 1.56897 15.4647 1.47658 15.5825C1.38419 15.7003 1.33398 15.8458 1.33398 15.9955C1.33398 16.1452 1.38419 16.2906 1.47658 16.4085C1.56897 16.5263 1.6982 16.6098 1.84361 16.6455C2.75561 16.8748 3.64361 17.1748 4.51294 17.5482C6.72793 18.4911 8.74195 19.8493 10.4463 21.5495C12.8204 23.928 14.5142 26.8989 15.3516 30.1535C15.3873 30.2989 15.4708 30.4281 15.5886 30.5205C15.7065 30.6129 15.8519 30.6631 16.0016 30.6631C16.1513 30.6631 16.2968 30.6129 16.4146 30.5205C16.5324 30.4281 16.6159 30.2989 16.6516 30.1535C16.8809 29.2402 17.1809 28.3522 17.5543 27.4828C18.4972 25.2678 19.8554 23.2538 21.5556 21.5495C23.9343 19.1759 26.9052 17.4826 30.1596 16.6455C30.3041 16.6088 30.4323 16.5249 30.5238 16.4072C30.6154 16.2895 30.6651 16.1446 30.6651 15.9955C30.6651 15.8464 30.6154 15.7015 30.5238 15.5838C30.4323 15.4661 30.3041 15.3822 30.1596 15.3455C29.2467 15.1158 28.3536 14.8135 27.4889 14.4415Z" fill="url(#paint2_linear_0_30)"/>
</g>
<defs>
<linearGradient id="paint0_linear_0_30" x1="9.33427" y1="20.6615" x2="14.6676" y2="15.9948" gradientUnits="userSpaceOnUse">
<stop stop-color="#08B962"/>
<stop offset="1" stop-color="#08B962" stop-opacity="0"/>
</linearGradient>
<linearGradient id="paint1_linear_0_30" x1="10.6676" y1="7.32816" x2="15.3343" y2="14.6615" gradientUnits="userSpaceOnUse">
<stop stop-color="#F94543"/>
<stop offset="1" stop-color="#F94543" stop-opacity="0"/>
</linearGradient>
<linearGradient id="paint2_linear_0_30" x1="4.66761" y1="17.9948" x2="23.3343" y2="15.9948" gradientUnits="userSpaceOnUse">
<stop stop-color="#FABC12"/>
<stop offset="0.46" stop-color="#FABC12" stop-opacity="0"/>
</linearGradient>
</defs>
</svg>
